<svg width="262" height="46" viewBox="0 0 262 46" fill="none" xmlns="http://www.w3.org/2000/svg">
<path d="M0.578862 43.7106V2.50081C0.578862 0.974527 1.34201 0.211384 2.86829 0.211384C4.39458 0.211384 5.15772 0.974527 5.15772 2.50081V18.5268H23.4732V2.50081C23.4732 0.974527 24.2363 0.211384 25.7626 0.211384C27.2889 0.211384 28.052 0.974527 28.052 2.50081V43.7106C28.052 45.2369 27.2889 46 25.7626 46C24.2363 46 23.4732 45.2369 23.4732 43.7106V23.1057H5.15772V43.7106C5.15772 45.2369 4.39458 46 2.86829 46C1.34201 46 0.578862 45.2369 0.578862 43.7106ZM37.2039 2.50081C37.2039 0.974527 37.967 0.211384 39.4933 0.211384C41.0196 0.211384 41.7827 0.974527 41.7827 2.50081V41.4211H57.8087C59.335 41.4211 60.0982 42.1843 60.0982 43.7106C60.0982 45.2369 59.335 46 57.8087 46H39.4933C37.967 46 37.2039 45.2369 37.2039 43.7106V2.50081ZM69.2664 2.50081C69.2664 0.974527 70.0295 0.211384 71.5558 0.211384H94.4501C95.9764 0.211384 96.7395 0.974527 96.7395 2.50081C96.7395 4.0271 95.9764 4.79025 94.4501 4.79025H85.2924V43.7106C85.2924 45.2369 84.5292 46 83.0029 46C81.4767 46 80.7135 45.2369 80.7135 43.7106V4.79025H71.5558C70.0295 4.79025 69.2664 4.0271 69.2664 2.50081ZM105.891 2.50081C105.891 0.974527 106.655 0.211384 108.181 0.211384C109.707 0.211384 110.47 0.974527 110.47 2.50081V13.948H119.628C122.149 13.948 124.299 14.8267 126.08 16.5843C127.884 18.3418 128.786 20.4578 128.786 22.9322V43.7106C128.786 45.2369 128.023 46 126.496 46C124.97 46 124.207 45.2369 124.207 43.7106V23.1057C124.207 21.8107 123.767 20.7238 122.889 19.845C122.01 18.9662 120.923 18.5268 119.628 18.5268H110.47V43.7106C110.47 45.2369 109.707 46 108.181 46C106.655 46 105.891 45.2369 105.891 43.7106V2.50081ZM149.401 18.5268C147.505 18.5268 145.886 19.1975 144.545 20.5388C143.203 21.88 142.533 23.4988 142.533 25.3951V27.6846H156.269V25.3951C156.269 23.4988 155.599 21.88 154.257 20.5388C152.916 19.1975 151.297 18.5268 149.401 18.5268ZM142.533 32.2634V36.8423C142.533 38.0911 142.984 39.1664 143.886 40.0683C144.787 40.9702 145.863 41.4211 147.112 41.4211H158.559C160.085 41.4211 160.848 42.1843 160.848 43.7106C160.848 45.2369 160.085 46 158.559 46H147.112C144.545 46 142.371 45.1212 140.59 43.3637C138.833 41.583 137.954 39.4092 137.954 36.8423V25.3951C137.954 22.2269 139.064 19.5328 141.284 17.3127C143.527 15.0696 146.233 13.948 149.401 13.948C152.615 13.948 155.321 15.058 157.518 17.278C159.738 19.475 160.848 22.1807 160.848 25.3951V32.2634H142.533ZM170.016 16.2374C170.016 14.7111 170.78 13.948 172.306 13.948H186.042C187.569 13.948 188.332 14.7111 188.332 16.2374V20.8163C188.332 22.3425 187.569 23.1057 186.042 23.1057C184.516 23.1057 183.753 22.3425 183.753 20.8163V18.5268H174.595V43.7106C174.595 45.2369 173.832 46 172.306 46C170.78 46 170.016 45.2369 170.016 43.7106V16.2374ZM199.806 13.948H220.411C222.978 13.948 225.14 14.8383 226.897 16.619C228.678 18.3765 229.568 20.5388 229.568 23.1057V43.7106C229.568 45.2369 228.805 46 227.279 46C225.753 46 224.99 45.2369 224.99 43.7106V23.1057C224.99 21.8107 224.55 20.7238 223.671 19.845C222.793 18.9662 221.706 18.5268 220.411 18.5268H215.832V43.7106C215.832 45.2369 215.069 46 213.542 46C212.016 46 211.253 45.2369 211.253 43.7106V18.5268H202.095V43.7106C202.095 45.2369 201.332 46 199.806 46C198.28 46 197.516 45.2369 197.516 43.7106V16.2374C197.516 14.7111 198.28 13.948 199.806 13.948ZM238.704 34.5528V25.3951C238.704 22.2269 239.814 19.5328 242.034 17.3127C244.277 15.0696 246.983 13.948 250.151 13.948C253.365 13.948 256.071 15.058 258.268 17.278C260.488 19.475 261.598 22.1807 261.598 25.3951V34.5528C261.598 37.721 260.477 40.4267 258.233 42.6699C256.013 44.89 253.319 46 250.151 46C246.983 46 244.277 44.89 242.034 42.6699C239.814 40.4267 238.704 37.721 238.704 34.5528ZM257.019 34.5528V25.3951C257.019 23.4988 256.349 21.88 255.007 20.5388C253.666 19.1975 252.047 18.5268 250.151 18.5268C248.255 18.5268 246.636 19.1975 245.295 20.5388C243.953 21.88 243.283 23.4988 243.283 25.3951V34.5528C243.283 36.4723 243.942 38.1026 245.26 39.4439C246.601 40.7621 248.232 41.4211 250.151 41.4211C252.047 41.4211 253.666 40.7505 255.007 39.4092C256.349 38.0679 257.019 36.4491 257.019 34.5528Z" fill="white"/>
</svg>
