<svg width="280" height="60" viewBox="0 0 280 60" fill="none" xmlns="http://www.w3.org/2000/svg">
<path d="M21.1837 0.211384C22.71 0.211384 23.4732 0.974527 23.4732 2.50081C23.4732 4.0271 22.71 4.79025 21.1837 4.79025H12.026C10.1066 4.79025 8.47624 5.46089 7.13496 6.80217C5.8168 8.14345 5.15772 9.76224 5.15772 11.6585V34.5528C5.15772 36.4491 5.82836 38.0679 7.16965 39.4092C8.51093 40.7505 10.1297 41.4211 12.026 41.4211H21.1837C22.71 41.4211 23.4732 42.1843 23.4732 43.7106C23.4732 45.2369 22.71 46 21.1837 46H12.026C8.85781 46 6.15212 44.89 3.90894 42.6699C1.68889 40.4267 0.578862 37.721 0.578862 34.5528V11.6585C0.578862 8.49034 1.68889 5.79621 3.90894 3.57615C6.15212 1.33297 8.85781 0.211384 12.026 0.211384H21.1837ZM41.7991 46C39.2321 46 37.0583 45.1212 35.2777 43.3637C33.5201 41.583 32.6414 39.4092 32.6414 36.8423C32.6414 35.1772 33.0461 33.6394 33.8555 32.2287C35.5899 29.1993 38.2377 27.6846 41.7991 27.6846H50.9568V23.1057C50.9568 21.8107 50.5174 20.7238 49.6387 19.845C48.7599 18.9662 47.673 18.5268 46.3779 18.5268H37.2202C35.6939 18.5268 34.9308 17.7637 34.9308 16.2374C34.9308 14.7111 35.6939 13.948 37.2202 13.948H46.3779C48.9449 13.948 51.1071 14.8383 52.8647 16.619C54.6453 18.3765 55.5357 20.5388 55.5357 23.1057V43.7106C55.5357 45.2369 54.7725 46 53.2462 46H41.7991ZM50.9568 32.2634H41.7991C40.5272 32.2634 39.4403 32.7144 38.5384 33.6163C37.6596 34.495 37.2202 35.5704 37.2202 36.8423C37.2202 38.0911 37.6712 39.1664 38.5731 40.0683C39.475 40.9702 40.5503 41.4211 41.7991 41.4211H50.9568V32.2634ZM87.5982 23.1057V36.8423C87.5982 39.4092 86.7078 41.583 84.9272 43.3637C83.1696 45.1212 81.0074 46 78.4404 46H66.9933C65.467 46 64.7039 45.2369 64.7039 43.7106V2.50081C64.7039 0.974527 65.467 0.211384 66.9933 0.211384C68.5196 0.211384 69.2827 0.974527 69.2827 2.50081V13.948H78.4404C82.0018 13.948 84.6497 15.4627 86.3841 18.4921C87.1935 19.9028 87.5982 21.4407 87.5982 23.1057ZM78.4404 18.5268H69.2827V41.4211H78.4404C79.7124 41.4211 80.7877 40.9818 81.6665 40.103C82.5684 39.2011 83.0193 38.1142 83.0193 36.8423V23.1057C83.0193 21.8107 82.5799 20.7238 81.7012 19.845C80.8224 18.9662 79.7355 18.5268 78.4404 18.5268ZM96.7664 2.50081C96.7664 0.974527 97.5295 0.211384 99.0558 0.211384C100.582 0.211384 101.345 0.974527 101.345 2.50081V39.1317C101.345 40.3111 102.108 41.0743 103.635 41.4211C105.161 41.768 105.924 42.5312 105.924 43.7106C105.924 45.2369 105.161 46 103.635 46C101.576 46 99.9114 45.3987 98.6395 44.1962C97.3908 42.9706 96.7664 41.2824 96.7664 39.1317V2.50081ZM126.526 18.5268C124.63 18.5268 123.011 19.1975 121.67 20.5388C120.328 21.88 119.658 23.4988 119.658 25.3951V27.6846H133.394V25.3951C133.394 23.4988 132.724 21.88 131.382 20.5388C130.041 19.1975 128.422 18.5268 126.526 18.5268ZM119.658 32.2634V36.8423C119.658 38.0911 120.109 39.1664 121.011 40.0683C121.912 40.9702 122.988 41.4211 124.237 41.4211H135.684C137.21 41.4211 137.973 42.1843 137.973 43.7106C137.973 45.2369 137.21 46 135.684 46H124.237C121.67 46 119.496 45.1212 117.715 43.3637C115.958 41.583 115.079 39.4092 115.079 36.8423V25.3951C115.079 22.2269 116.189 19.5328 118.409 17.3127C120.652 15.0696 123.358 13.948 126.526 13.948C129.74 13.948 132.446 15.058 134.643 17.278C136.863 19.475 137.973 22.1807 137.973 25.3951V32.2634H119.658ZM147.141 43.7106V2.50081C147.141 0.974527 147.905 0.211384 149.431 0.211384H167.746C169.273 0.211384 170.036 0.974527 170.036 2.50081C170.036 4.0271 169.273 4.79025 167.746 4.79025H151.72V18.5268H167.746C169.273 18.5268 170.036 19.29 170.036 20.8163C170.036 22.3425 169.273 23.1057 167.746 23.1057H151.72V43.7106C151.72 45.2369 150.957 46 149.431 46C147.905 46 147.141 45.2369 147.141 43.7106ZM179.204 2.50081C179.204 0.974527 179.967 0.211384 181.493 0.211384C183.02 0.211384 183.783 0.974527 183.783 2.50081V39.1317C183.783 40.3111 184.546 41.0743 186.072 41.4211C187.598 41.768 188.362 42.5312 188.362 43.7106C188.362 45.2369 187.598 46 186.072 46C184.014 46 182.349 45.3987 181.077 44.1962C179.828 42.9706 179.204 41.2824 179.204 39.1317V2.50081ZM202.72 55.1577L206.535 43.7106L197.655 16.9659C197.563 16.6883 197.516 16.4455 197.516 16.2374C197.516 14.7111 198.28 13.948 199.806 13.948C200.916 13.948 201.644 14.4683 201.991 15.5089L208.964 36.426L215.936 15.5089C216.283 14.4683 217.011 13.948 218.121 13.948C219.648 13.948 220.411 14.7111 220.411 16.2374C220.411 16.4455 220.364 16.6883 220.272 16.9659L206.57 58.1756C206.223 59.2163 205.495 59.7366 204.385 59.7366H199.771C198.245 59.7366 197.482 58.9734 197.482 57.4472C197.482 56.2215 198.118 55.4815 199.39 55.2271C199.598 55.1808 200.708 55.1577 202.72 55.1577ZM241.026 18.5268C239.13 18.5268 237.511 19.1975 236.17 20.5388C234.828 21.88 234.158 23.4988 234.158 25.3951V27.6846H247.894V25.3951C247.894 23.4988 247.224 21.88 245.882 20.5388C244.541 19.1975 242.922 18.5268 241.026 18.5268ZM234.158 32.2634V36.8423C234.158 38.0911 234.609 39.1664 235.511 40.0683C236.412 40.9702 237.488 41.4211 238.737 41.4211H250.184C251.71 41.4211 252.473 42.1843 252.473 43.7106C252.473 45.2369 251.71 46 250.184 46H238.737C236.17 46 233.996 45.1212 232.215 43.3637C230.458 41.583 229.579 39.4092 229.579 36.8423V25.3951C229.579 22.2269 230.689 19.5328 232.909 17.3127C235.152 15.0696 237.858 13.948 241.026 13.948C244.24 13.948 246.946 15.058 249.143 17.278C251.363 19.475 252.473 22.1807 252.473 25.3951V32.2634H234.158ZM261.641 16.2374C261.641 14.7111 262.405 13.948 263.931 13.948H277.667C279.194 13.948 279.957 14.7111 279.957 16.2374V20.8163C279.957 22.3425 279.194 23.1057 277.667 23.1057C276.141 23.1057 275.378 22.3425 275.378 20.8163V18.5268H266.22V43.7106C266.22 45.2369 265.457 46 263.931 46C262.405 46 261.641 45.2369 261.641 43.7106V16.2374Z" fill="white"/>
</svg>
