<svg width="114" height="114" viewBox="0 0 114 114" fill="none" xmlns="http://www.w3.org/2000/svg">
<path d="M113.25 108.901L96.4376 92.0878C99.3897 88.1088 101.138 83.1861 101.138 77.8622C101.138 71.8136 98.8811 66.2831 95.166 62.0661V13.7816H62.0655V1H33.1011V13.7818H0V85.3261H54.4814C57.6246 94.8745 66.626 101.787 77.2131 101.787C82.5372 101.787 87.4599 100.039 91.4389 97.0865L108.252 113.899L113.25 108.901ZM40.1703 8.0692H54.9963V13.7818H40.1703V8.0692ZM53.2879 77.8622C53.2879 77.9942 53.2907 78.1255 53.2928 78.2569H7.0692V20.8508H88.0968V56.5587C84.8302 54.8829 81.1299 53.9368 77.2131 53.9368C64.0206 53.937 53.2879 64.6697 53.2879 77.8622ZM77.2131 94.7183C67.9188 94.7183 60.3571 87.1566 60.3571 77.8622C60.3571 68.5677 67.9188 61.0062 77.2131 61.0062C86.5075 61.0062 94.0691 68.5679 94.0691 77.8622C94.0691 87.1566 86.5075 94.7183 77.2131 94.7183Z" fill="#331F6B"/>
</svg>
